<svg id="Layer_1" data-name="Layer 1" xmlns="http://www.w3.org/2000/svg" xmlns:xlink="http://www.w3.org/1999/xlink" viewBox="0 0 1050.35 304.94"><defs><style>.cls-1{fill:#2d2c2c;}.cls-2{fill:#05a8cd;}.cls-3{fill:#048ead;}.cls-4{fill:url(#linear-gradient);}.cls-5{fill:url(#linear-gradient-2);}.cls-6{fill:#1adef4;}.cls-7{fill:url(#linear-gradient-3);}</style><linearGradient id="linear-gradient" x1="111.87" y1="103.15" x2="246.08" y2="248.09" gradientUnits="userSpaceOnUse"><stop offset="0" stop-color="#1adef4"/><stop offset="1" stop-color="#05a8cd"/></linearGradient><linearGradient id="linear-gradient-2" x1="148.86" y1="68.9" x2="283.07" y2="213.84" xlink:href="#linear-gradient"/><linearGradient id="linear-gradient-3" x1="189.54" y1="228.48" x2="461.73" y2="-31.29" gradientUnits="userSpaceOnUse"><stop offset="0" stop-color="#ffde17"/><stop offset="1" stop-color="#ff6017"/></linearGradient></defs><rect class="cls-1" x="-66.94" y="-41.52" width="1157.13" height="394.76"/><path class="cls-2" d="M136.17,206.85a4.52,4.52,0,0,1-3.42-7.49l30.33-35.86a4.52,4.52,0,1,1,6.85,5.91h0l-30.34,35.87A4.51,4.51,0,0,1,136.17,206.85Z"/><path class="cls-3" d="M115,205.06a4.53,4.53,0,0,1-3.42-7.49l41.77-47.21a4.53,4.53,0,1,1,6.85,5.92l-41.77,47.21A4.52,4.52,0,0,1,115,205.06Z"/><path class="cls-3" d="M169.82,143.05a4.53,4.53,0,0,1-3.42-7.49l32.11-37.15a4.52,4.52,0,1,1,6.84,5.92l-32.1,37.15A4.55,4.55,0,0,1,169.82,143.05Z"/><path class="cls-4" d="M202.68,208.58a4.51,4.51,0,0,1-3.43-1.56L110.19,105.15a4.53,4.53,0,1,1,6.74-6l.1.12L206.1,201.1a4.52,4.52,0,0,1-3.42,7.49Z"/><path class="cls-3" d="M169.68,142.9a4.52,4.52,0,0,1-3.43-1.57l-32-37.5a4.52,4.52,0,0,1,6.84-5.92l32,37.5a4.52,4.52,0,0,1-3.42,7.49Z"/><path class="cls-5" d="M226,206.25a4.54,4.54,0,0,1-3.38-1.51l-45.16-50a4.51,4.51,0,0,1,.05-6.07L222.06,99a4.52,4.52,0,1,1,6.7,6.08l0,0-41.8,46.72,42.43,46.89a4.52,4.52,0,0,1-3.38,7.53Z"/><path class="cls-6" d="M339.55,182.12h14.12a9.85,9.85,0,0,0,2.75,5.46,14.66,14.66,0,0,0,6.07,3.61,27.8,27.8,0,0,0,8.82,1.27q7.31,0,11.53-2.09t4.22-5.87a5.13,5.13,0,0,0-2.42-4.55c-1.61-1.07-4.61-1.85-9-2.34l-12.39-1.39q-12-1.32-17.36-5.62c-3.58-2.88-5.37-6.88-5.37-12a15.56,15.56,0,0,1,3.57-10.33,22.3,22.3,0,0,1,10.05-6.53,46.58,46.58,0,0,1,15.26-2.26A42.84,42.84,0,0,1,384.6,142a26,26,0,0,1,10.59,7,16.82,16.82,0,0,1,4.26,10.47H385.34a8.26,8.26,0,0,0-2.42-4.72,13.36,13.36,0,0,0-5.54-3.12,27.73,27.73,0,0,0-8.29-1.11q-6.64,0-10.58,2T354.57,158a4.85,4.85,0,0,0,2.34,4.31q2.34,1.51,8.24,2.25L378,166.12A53.07,53.07,0,0,1,391.62,169a14.75,14.75,0,0,1,7.22,5.37,15.43,15.43,0,0,1,2.17,8.53,16.65,16.65,0,0,1-3.73,10.79,23.82,23.82,0,0,1-10.46,7.18,44.4,44.4,0,0,1-15.76,2.55,45,45,0,0,1-16.16-2.67,26.11,26.11,0,0,1-11-7.47A18.45,18.45,0,0,1,339.55,182.12Z"/><path class="cls-6" d="M452.29,203.46a41.8,41.8,0,0,1-18.83-4,30.58,30.58,0,0,1-12.6-11.2,33.47,33.47,0,0,1,0-33.56,30.58,30.58,0,0,1,12.6-11.2,46,46,0,0,1,37.66,0,31.11,31.11,0,0,1,0,56A41.74,41.74,0,0,1,452.29,203.46Zm0-12.39a26.17,26.17,0,0,0,11.61-2.38,17.59,17.59,0,0,0,7.55-6.81,21.67,21.67,0,0,0,0-20.84,17.47,17.47,0,0,0-7.55-6.81,29.41,29.41,0,0,0-23.18,0,17.46,17.46,0,0,0-7.59,6.81,21.74,21.74,0,0,0,0,20.84,17.58,17.58,0,0,0,7.59,6.81A26.27,26.27,0,0,0,452.29,191.07Z"/><path class="cls-6" d="M520.63,140.69v55.38l-6.32-6.15h46.2v12.31H506.68V140.69Z"/><path class="cls-6" d="M592.24,175.23a17.66,17.66,0,0,0,1.89,8.45,12.9,12.9,0,0,0,5.53,5.46,21.23,21.23,0,0,0,17.69,0,13,13,0,0,0,5.49-5.46,17.66,17.66,0,0,0,1.89-8.45V140.69h13.95v35.2a27.34,27.34,0,0,1-3.77,14.48A25.7,25.7,0,0,1,624.32,200a38,38,0,0,1-31.63,0,26.08,26.08,0,0,1-10.59-9.64,27.09,27.09,0,0,1-3.81-14.48v-35.2h14Z"/><path class="cls-6" d="M652.29,140.94h62.86v12.31H652.29Zm24.54,6.24h13.86v55.3H676.83Z"/><path class="cls-6" d="M747.18,140.94h14v61.54h-14Z"/><path class="cls-6" d="M825.51,203.71a41.77,41.77,0,0,1-18.83-4,31.11,31.11,0,0,1,0-56,46.11,46.11,0,0,1,37.66,0,30.58,30.58,0,0,1,12.6,11.2,33.47,33.47,0,0,1,0,33.56,30.58,30.58,0,0,1-12.6,11.2A41.77,41.77,0,0,1,825.51,203.71Zm0-12.39a26.2,26.2,0,0,0,11.61-2.38,17.52,17.52,0,0,0,7.55-6.81,21.67,21.67,0,0,0,0-20.84,17.65,17.65,0,0,0-7.55-6.81,29.41,29.41,0,0,0-23.18,0,17.58,17.58,0,0,0-7.59,6.81,21.67,21.67,0,0,0,0,20.84,17.46,17.46,0,0,0,7.59,6.81A26.27,26.27,0,0,0,825.51,191.32Z"/><path class="cls-6" d="M932.62,193.29l-4.84.74V140.94h13.54v61.54H923.67l-39.38-53.09,4.76-.74v53.83H875.59V140.94h18Z"/><path class="cls-6" d="M735.36,154.81V140.86h37.58v13.95Z"/><path class="cls-6" d="M735.36,202.88V188.93h37.58v13.95Z"/><polygon class="cls-7" points="319.52 102.99 246.76 102.99 241.12 102.99 241.12 118.63 246.76 118.63 271.19 118.63 271.19 204.14 276.82 204.14 289.31 204.14 294.95 204.14 294.95 118.63 319.52 118.63 325.16 118.63 325.16 102.99 319.52 102.99"/></svg>